<?xml version="1.0" encoding="UTF-8"?>
<svg width="32" height="32" viewBox="0 0 32 32" fill="none" xmlns="http://www.w3.org/2000/svg">
  <circle cx="16" cy="16" r="14" fill="#2e86c1"/>
  <path d="M16 2C8.268 2 2 8.268 2 16s6.268 14 14 14 14-6.268 14-14S23.732 2 16 2zm0 25.2c-6.188 0-11.2-5.012-11.2-11.2S9.812 4.8 16 4.8 27.2 9.812 27.2 16 22.188 27.2 16 27.2z" fill="#fff"/>
  <path d="M16 4.8c-6.188 0-11.2 5.012-11.2 11.2 0 6.188 5.012 11.2 11.2 11.2 6.188 0 11.2-5.012 11.2-11.2 0-6.188-5.012-11.2-11.2-11.2zm0 20.4c-5.078 0-9.2-4.122-9.2-9.2s4.122-9.2 9.2-9.2 9.2 4.122 9.2 9.2-4.122 9.2-9.2 9.2z" fill="#fff"/>
  <path d="M16 8.4c-4.188 0-7.6 3.412-7.6 7.6s3.412 7.6 7.6 7.6 7.6-3.412 7.6-7.6-3.412-7.6-7.6-7.6zm0 13.6c-3.312 0-6-2.688-6-6s2.688-6 6-6 6 2.688 6 6-2.688 6-6 6z" fill="#fff"/>
</svg> 